<svg width="128" height="128" viewBox="0 0 128 128" fill="none" xmlns="http://www.w3.org/2000/svg">
  <rect width="128" height="128" rx="24" fill="#0B1220"/>
  <path d="M64 20C40.804 20 22 38.804 22 62C22 85.196 40.804 104 64 104C87.196 104 106 85.196 106 62C106 38.804 87.196 20 64 20ZM64 32C80.569 32 94 45.431 94 62C94 78.569 80.569 92 64 92C47.431 92 34 78.569 34 62C34 45.431 47.431 32 64 32Z" fill="#22D3EE"/>
  <path d="M49 49H64C71.732 49 78 55.268 78 63C78 70.732 71.732 77 64 77H57V90H49V49ZM57 57V69H64C67.314 69 70 66.314 70 63C70 59.686 67.314 57 64 57H57Z" fill="#E2E8F0"/>
</svg>
